<svg version="1.1" viewBox="0.0 0.0 480.0 480.0" fill="none" stroke="none" stroke-linecap="square" stroke-miterlimit="10" xmlns:xlink="http://www.w3.org/1999/xlink" xmlns="http://www.w3.org/2000/svg"><clipPath id="p.0"><path d="m0 0l480.0 0l0 480.0l-480.0 0l0 -480.0z" clip-rule="nonzero"/></clipPath><g clip-path="url(#p.0)"><path fill="#000000" fill-opacity="0.0" d="m0 0l480.0 0l0 480.0l-480.0 0z" fill-rule="evenodd"/><path fill="#000000" d="m0 240.0c0 -132.54834 107.45166 -240.0 240.0 -240.0c63.651947 0 124.6969 25.285643 169.70563 70.29437c45.008728 45.008728 70.29437 106.053665 70.29437 169.70563c0 132.54834 -107.45166 240.0 -240.0 240.0c-132.54834 0 -240.0 -107.45166 -240.0 -240.0z" fill-rule="evenodd"/><path fill="#45818e" d="m230.77165 333.28125l18.456696 0.03149414l0 98.92914l-18.456696 -0.03149414z" fill-rule="evenodd"/><g filter="url(#shadowFilter-p.1)"><use xlink:href="#p.1" transform="matrix(1.0 0.0 0.0 1.0 2.0 0.0)"/></g><defs><filter id="shadowFilter-p.1" filterUnits="userSpaceOnUse"><feGaussianBlur in="SourceAlpha" stdDeviation="14.0" result="blur"/><feComponentTransfer in="blur" color-interpolation-filters="sRGB"><feFuncR type="linear" slope="0" intercept="1.0"/><feFuncG type="linear" slope="0" intercept="1.0"/><feFuncB type="linear" slope="0" intercept="1.0"/><feFuncA type="linear" slope="1.0" intercept="0"/></feComponentTransfer></filter></defs><g id="p.1"><path fill="#ffffff" d="m211.48009 139.96889l-16.0 9.196838l-51.149597 -88.59842l16.0 -9.19685z" fill-rule="evenodd"/></g><g filter="url(#shadowFilter-p.2)"><use xlink:href="#p.2" transform="matrix(1.0 0.0 0.0 1.0 2.0 0.0)"/></g><defs><filter id="shadowFilter-p.2" filterUnits="userSpaceOnUse"><feGaussianBlur in="SourceAlpha" stdDeviation="14.0" result="blur"/><feComponentTransfer in="blur" color-interpolation-filters="sRGB"><feFuncR type="linear" slope="0" intercept="1.0"/><feFuncG type="linear" slope="0" intercept="1.0"/><feFuncB type="linear" slope="0" intercept="1.0"/><feFuncA type="linear" slope="1.0" intercept="0"/></feComponentTransfer></filter></defs><g id="p.2"><path fill="#ffffff" d="m276.28314 187.4425l0.03149414 -18.456696l146.70865 0l-0.03149414 18.456696z" fill-rule="evenodd"/></g><g filter="url(#shadowFilter-p.3)"><use xlink:href="#p.3" transform=""/></g><defs><filter id="shadowFilter-p.3" filterUnits="userSpaceOnUse"><feGaussianBlur in="SourceAlpha" stdDeviation="13.888888" result="blur"/><feComponentTransfer in="blur" color-interpolation-filters="sRGB"><feFuncR type="linear" slope="0" intercept="1.0"/><feFuncG type="linear" slope="0" intercept="1.0"/><feFuncB type="linear" slope="0" intercept="1.0"/><feFuncA type="linear" slope="1.0" intercept="0"/></feComponentTransfer></filter></defs><g id="p.3"><path fill="#ffffff" d="m405.1526 178.2127c0 -9.975906 8.080048 -18.062988 18.047241 -18.062988c4.786438 0 9.376831 1.9030609 12.761353 5.2905273c3.384491 3.3874664 5.2858887 7.9818573 5.2858887 12.772461c0 9.975922 -8.080017 18.062988 -18.047241 18.062988c-9.967194 0 -18.047241 -8.087067 -18.047241 -18.062988z" fill-rule="evenodd"/></g><path fill="#45818e" d="m41.691658 308.2333l0.03149414 -18.456696l146.70865 0l-0.03149414 18.456696z" fill-rule="evenodd"/><path fill="#00ffff" d="m25.005548 299.00543c0 -9.975922 8.080027 -18.062988 18.047243 -18.062988c4.7864304 0 9.376816 1.9030457 12.76133 5.2905273c3.3845139 3.3874512 5.2859154 7.981842 5.2859154 12.772461c0 9.975922 -8.080025 18.062988 -18.047245 18.062988c-9.9672165 0 -18.047243 -8.087067 -18.047243 -18.062988z" fill-rule="evenodd"/><path fill="#00ffff" d="m221.95305 445.364c0 -9.975922 8.080032 -18.062988 18.047256 -18.062988c4.7864227 0 9.376816 1.9030457 12.761322 5.2905273c3.3845215 3.3874512 5.285919 7.9818726 5.285919 12.772461c0 9.975922 -8.080032 18.062988 -18.047241 18.062988c-9.967224 0 -18.047256 -8.087067 -18.047256 -18.062988z" fill-rule="evenodd"/><g filter="url(#shadowFilter-p.4)"><use xlink:href="#p.4" transform=""/></g><defs><filter id="shadowFilter-p.4" filterUnits="userSpaceOnUse"><feGaussianBlur in="SourceAlpha" stdDeviation="13.888888" result="blur"/><feComponentTransfer in="blur" color-interpolation-filters="sRGB"><feFuncR type="linear" slope="0" intercept="1.0"/><feFuncG type="linear" slope="0" intercept="1.0"/><feFuncB type="linear" slope="0" intercept="1.0"/><feFuncA type="linear" slope="1.0" intercept="0"/></feComponentTransfer></filter></defs><g id="p.4"><path fill="#ffffff" d="m131.43513 53.46789c0 -9.975914 8.080032 -18.062992 18.047241 -18.062992c4.786438 0 9.376816 1.9030609 12.761337 5.2905273c3.3845062 3.3874702 5.285904 7.981861 5.285904 12.772465c0 9.975914 -8.080017 18.062992 -18.047241 18.062992c-9.967209 0 -18.047241 -8.087078 -18.047241 -18.062992z" fill-rule="evenodd"/></g><defs><linearGradient id="p.5" gradientUnits="userSpaceOnUse" gradientTransform="matrix(16.88003807126378 0.0 0.0 16.88003807126378 0.0 0.0)" spreadMethod="pad" x1="5.833719348017354" y1="5.776585997032466" x2="5.833658002474915" y2="22.65662406818478"><stop offset="0.0" stop-color="#ffffff"/><stop offset="0.28" stop-color="#ffffff"/><stop offset="0.68" stop-color="#45818e"/><stop offset="1.0" stop-color="#45818e"/></linearGradient></defs><path fill="url(#p.5)" d="m238.40804 97.51001c-39.914383 0 -71.77774 8.374748 -95.59004 25.124237c-23.812325 16.749496 -35.718483 38.717102 -35.718483 65.90282c0 48.272903 37.039024 76.897354 111.11704 85.87337c23.301147 2.6627502 38.870728 5.389923 46.70877 8.181488c7.838043 2.7486267 11.75708 6.4850464 11.75708 11.209259c0 7.6446533 -12.417328 11.46698 -37.252014 11.46698c-18.06157 0 -30.755798 -3.5646362 -38.082672 -10.693909c-3.407837 -3.3928528 -7.859329 -5.089264 -13.354492 -5.089264l-80.51033 0c-6.006325 0 -9.009491 2.8989563 -9.009491 8.696838c0 23.749908 12.097855 43.741943 36.29355 59.976074c24.238297 16.191193 58.21025 24.286774 101.91586 24.286774c43.705612 0 78.76381 -8.439178 105.17461 -25.317505c26.4534 -16.878326 39.680115 -38.91037 39.680115 -66.09607c0 -27.18573 -9.094696 -47.56427 -27.284058 -61.135666c-18.189392 -13.571396 -48.75348 -22.869507 -91.69235 -27.894348c-20.404465 -2.4050446 -34.01454 -4.7242126 -40.83023 -6.957489c-6.815689 -2.233261 -10.223541 -5.325485 -10.223541 -9.276642c0 -7.386963 8.7752075 -11.080429 26.325607 -11.080429c12.566437 0 21.980606 2.8989563 28.242508 8.696854c3.4078674 3.1781006 7.4759827 4.767166 12.204346 4.767166l84.40808 0c2.854065 0 5.1330566 -0.79452515 6.836975 -2.3835907c1.7039185 -1.5890503 2.5558777 -3.6934814 2.5558777 -6.313263c0 -19.541077 -12.310822 -38.07289 -36.932526 -55.595436c-24.579071 -17.56549 -56.825806 -26.348244 -96.74019 -26.348244z" fill-rule="evenodd"/></g></svg>