<svg version="1.1" viewBox="0.0 0.0 960.0 480.0" fill="none" stroke="none" stroke-linecap="square" stroke-miterlimit="10" xmlns:xlink="http://www.w3.org/1999/xlink" xmlns="http://www.w3.org/2000/svg"><clipPath id="p.0"><path d="m0 0l960.0 0l0 480.0l-960.0 0l0 -480.0z" clip-rule="nonzero"/></clipPath><g clip-path="url(#p.0)"><path fill="#000000" fill-opacity="0.0" d="m0 0l960.0 0l0 480.0l-960.0 0z" fill-rule="evenodd"/><path fill="#000000" d="m0 0l960.0 0l0 480.0l-960.0 0z" fill-rule="evenodd"/><path fill="#00ffff" d="m32.56555 444.9344l4.765625 -0.421875q0.34375 2.875 1.578125 4.71875q1.234375 1.828125 3.84375 2.96875q2.609375 1.125 5.859375 1.125q2.890625 0 5.09375 -0.859375q2.21875 -0.859375 3.296875 -2.359375q1.078125 -1.5 1.078125 -3.265625q0 -1.796875 -1.046875 -3.140625q-1.03125 -1.34375 -3.421875 -2.25q-1.53125 -0.609375 -6.796875 -1.859375q-5.265625 -1.265625 -7.375 -2.390625q-2.734375 -1.4375 -4.078125 -3.546875q-1.328125 -2.125 -1.328125 -4.75q0 -2.890625 1.640625 -5.40625q1.640625 -2.515625 4.78125 -3.8125q3.15625 -1.3125 7.015625 -1.3125q4.234375 0 7.46875 1.375q3.25 1.359375 4.984375 4.015625q1.75 2.65625 1.890625 6.015625l-4.84375 0.375q-0.390625 -3.625 -2.640625 -5.46875q-2.25 -1.859375 -6.65625 -1.859375q-4.578125 0 -6.6875 1.6875q-2.09375 1.671875 -2.09375 4.046875q0 2.046875 1.484375 3.375q1.46875 1.328125 7.625 2.734375q6.15625 1.390625 8.453125 2.421875q3.328125 1.546875 4.90625 3.90625q1.59375 2.34375 1.59375 5.421875q0 3.046875 -1.75 5.75q-1.734375 2.6875 -5.0 4.1875q-3.265625 1.5 -7.359375 1.5q-5.1875 0 -8.6875 -1.515625q-3.5 -1.515625 -5.5 -4.546875q-1.984375 -3.03125 -2.09375 -6.859375z" fill-rule="nonzero"/><path fill="#d9d9d9" d="m68.27562 457.2l0 -22.90625l16.5625 0l0 2.703125l-13.53125 0l0 7.015625l12.671875 0l0 2.6875l-12.671875 0l0 7.796875l14.0625 0l0 2.703125l-17.09375 0zm21.1875 0l0 -22.90625l4.5625 0l5.421875 16.21875q0.75 2.265625 1.09375 3.390625q0.390625 -1.25 1.21875 -3.671875l5.484375 -15.9375l4.078125 0l0 22.90625l-2.921875 0l0 -19.171875l-6.65625 19.171875l-2.734375 0l-6.625 -19.5l0 19.5l-2.921875 0zm24.234375 0l8.796875 -22.90625l3.265625 0l9.375 22.90625l-3.453125 0l-2.671875 -6.9375l-9.578125 0l-2.515625 6.9375l-3.21875 0zm6.609375 -9.40625l7.765625 0l-2.390625 -6.34375q-1.09375 -2.890625 -1.625 -4.75q-0.4375 2.203125 -1.234375 4.375l-2.515625 6.71875zm17.21875 9.40625l0 -22.90625l3.109375 0l12.03125 17.984375l0 -17.984375l2.90625 0l0 22.90625l-3.109375 0l-12.03125 -18.0l0 18.0l-2.90625 0zm28.96875 0l0 -20.203125l-7.546875 0l0 -2.703125l18.15625 0l0 2.703125l-7.578125 0l0 20.203125l-3.03125 0zm14.234375 0l0 -22.90625l3.03125 0l0 22.90625l-3.03125 0zm24.71875 -8.03125l3.03125 0.765625q-0.953125 3.734375 -3.4375 5.703125q-2.46875 1.953125 -6.046875 1.953125q-3.703125 0 -6.03125 -1.5q-2.3125 -1.515625 -3.53125 -4.375q-1.203125 -2.859375 -1.203125 -6.140625q0 -3.578125 1.359375 -6.234375q1.375 -2.671875 3.890625 -4.046875q2.53125 -1.390625 5.5625 -1.390625q3.4375 0 5.78125 1.75q2.34375 1.75 3.265625 4.921875l-2.984375 0.703125q-0.796875 -2.5 -2.3125 -3.640625q-1.515625 -1.140625 -3.8125 -1.140625q-2.640625 0 -4.421875 1.265625q-1.765625 1.265625 -2.484375 3.40625q-0.71875 2.125 -0.71875 4.390625q0 2.921875 0.84375 5.109375q0.859375 2.171875 2.65625 3.25q1.796875 1.078125 3.890625 1.078125q2.546875 0 4.3125 -1.46875q1.765625 -1.46875 2.390625 -4.359375z" fill-rule="nonzero"/><path fill="#00ffff" d="m249.97874 443.8094l5.0625 1.28125q-1.59375 6.21875 -5.71875 9.5q-4.125 3.265625 -10.09375 3.265625q-6.171875 0 -10.046875 -2.515625q-3.859375 -2.515625 -5.875 -7.28125q-2.015625 -4.765625 -2.015625 -10.234375q0 -5.96875 2.28125 -10.40625q2.28125 -4.4375 6.484375 -6.734375q4.203125 -2.3125 9.25 -2.3125q5.734375 0 9.640625 2.921875q3.90625 2.921875 5.4375 8.203125l-4.96875 1.171875q-1.328125 -4.171875 -3.859375 -6.0625q-2.515625 -1.90625 -6.34375 -1.90625q-4.40625 0 -7.359375 2.109375q-2.953125 2.109375 -4.15625 5.671875q-1.203125 3.546875 -1.203125 7.3125q0 4.875 1.421875 8.515625q1.421875 3.625 4.40625 5.421875q3.0 1.796875 6.5 1.796875q4.234375 0 7.171875 -2.4375q2.953125 -2.453125 3.984375 -7.28125z" fill-rule="nonzero"/><path fill="#d9d9d9" d="m258.69373 446.04376q0 -5.703125 3.0625 -8.921875q3.0625 -3.234375 7.90625 -3.234375q3.171875 0 5.71875 1.515625q2.546875 1.515625 3.875 4.234375q1.34375 2.703125 1.34375 6.140625q0 3.484375 -1.40625 6.234375q-1.40625 2.75 -3.984375 4.171875q-2.578125 1.40625 -5.5625 1.40625q-3.234375 0 -5.78125 -1.5625q-2.546875 -1.5625 -3.859375 -4.265625q-1.3125 -2.703125 -1.3125 -5.71875zm3.125 0.046875q0 4.140625 2.21875 6.53125q2.234375 2.375 5.59375 2.375q3.421875 0 5.625 -2.40625q2.21875 -2.40625 2.21875 -6.828125q0 -2.796875 -0.953125 -4.875q-0.9375 -2.09375 -2.765625 -3.234375q-1.8125 -1.15625 -4.078125 -1.15625q-3.21875 0 -5.546875 2.21875q-2.3125 2.203125 -2.3125 7.375zm22.6875 11.109375l0 -22.90625l7.890625 0q2.671875 0 4.078125 0.328125q1.96875 0.453125 3.359375 1.640625q1.8125 1.53125 2.703125 3.921875q0.90625 2.375 0.90625 5.4375q0 2.609375 -0.609375 4.625q-0.609375 2.015625 -1.5625 3.34375q-0.953125 1.3125 -2.09375 2.078125q-1.125 0.75 -2.734375 1.140625q-1.59375 0.390625 -3.671875 0.390625l-8.265625 0zm3.03125 -2.703125l4.890625 0q2.265625 0 3.546875 -0.421875q1.296875 -0.421875 2.0625 -1.1875q1.078125 -1.078125 1.671875 -2.890625q0.609375 -1.828125 0.609375 -4.421875q0 -3.59375 -1.1875 -5.515625q-1.171875 -1.9375 -2.859375 -2.59375q-1.21875 -0.46875 -3.921875 -0.46875l-4.8125 0l0 17.5zm20.140625 2.703125l0 -22.90625l16.5625 0l0 2.703125l-13.53125 0l0 7.015625l12.671875 0l0 2.6875l-12.671875 0l0 7.796875l14.0625 0l0 2.703125l-17.09375 0z" fill-rule="nonzero"/><path fill="#00ffff" d="m339.56873 457.2l0 -38.171875l16.9375 0q5.09375 0 7.75 1.03125q2.65625 1.03125 4.234375 3.640625q1.59375 2.59375 1.59375 5.75q0 4.046875 -2.625 6.84375q-2.625 2.78125 -8.125 3.53125q2.015625 0.96875 3.046875 1.90625q2.21875 2.03125 4.1875 5.078125l6.640625 10.390625l-6.34375 0l-5.046875 -7.9375q-2.21875 -3.4375 -3.65625 -5.265625q-1.421875 -1.828125 -2.5625 -2.546875q-1.125 -0.734375 -2.296875 -1.015625q-0.859375 -0.1875 -2.8125 -0.1875l-5.859375 0l0 16.953125l-5.0625 0zm5.0625 -21.328125l10.859375 0q3.453125 0 5.40625 -0.71875q1.953125 -0.71875 2.96875 -2.28125q1.015625 -1.578125 1.015625 -3.421875q0 -2.71875 -1.96875 -4.453125q-1.953125 -1.75 -6.203125 -1.75l-12.078125 0l0 12.625z" fill-rule="nonzero"/><path fill="#d9d9d9" d="m376.42435 457.2l0 -22.90625l16.5625 0l0 2.703125l-13.53125 0l0 7.015625l12.671875 0l0 2.6875l-12.671875 0l0 7.796875l14.0625 0l0 2.703125l-17.09375 0zm27.828125 0l-8.875 -22.90625l3.28125 0l5.953125 16.640625q0.71875 2.0 1.203125 3.75q0.53125 -1.875 1.234375 -3.75l6.1875 -16.640625l3.09375 0l-8.96875 22.90625l-3.109375 0zm15.3125 0l0 -22.90625l3.03125 0l0 22.90625l-3.03125 0zm8.4375 0l0 -22.90625l16.5625 0l0 2.703125l-13.53125 0l0 7.015625l12.671875 0l0 2.6875l-12.671875 0l0 7.796875l14.0625 0l0 2.703125l-17.09375 0zm25.28125 0l-6.078125 -22.90625l3.109375 0l3.484375 15.015625q0.5625 2.359375 0.96875 4.6875q0.875 -3.671875 1.03125 -4.234375l4.359375 -15.46875l3.65625 0l3.28125 11.59375q1.234375 4.3125 1.78125 8.109375q0.4375 -2.171875 1.140625 -4.984375l3.59375 -14.71875l3.046875 0l-6.28125 22.90625l-2.921875 0l-4.828125 -17.453125q-0.609375 -2.1875 -0.71875 -2.6875q-0.359375 1.578125 -0.671875 2.6875l-4.859375 17.453125l-3.09375 0zm26.265625 0l0 -22.90625l16.5625 0l0 2.703125l-13.53125 0l0 7.015625l12.671875 0l0 2.6875l-12.671875 0l0 7.796875l14.0625 0l0 2.703125l-17.09375 0zm21.328125 0l0 -22.90625l10.15625 0q3.0624695 0 4.6562195 0.625q1.59375 0.609375 2.546875 2.171875q0.953125 1.5625 0.953125 3.453125q0 2.4375 -1.578125 4.109375q-1.578125 1.671875 -4.875 2.125q1.203125 0.578125 1.828125 1.140625q1.328125 1.21875 2.515625 3.046875l3.984375 6.234375l-3.8125 0l-3.03125 -4.765625q-1.328125 -2.0625 -2.1875 -3.15625q-0.8593445 -1.09375 -1.5468445 -1.53125q-0.671875 -0.4375 -1.375 -0.609375q-0.515625 -0.109375 -1.6875 -0.109375l-3.515625 0l0 10.171875l-3.03125 0zm3.03125 -12.796875l6.515625 0q2.0780945 0 3.2499695 -0.421875q1.171875 -0.4375 1.78125 -1.375q0.609375 -0.953125 0.609375 -2.0625q0 -1.625 -1.1875 -2.671875q-1.171875 -1.046875 -3.7187195 -1.046875l-7.25 0l0 7.578125z" fill-rule="nonzero"/><path fill="#00ffff" d="m534.58057 457.2l0 -38.171875l27.59375 0l0 4.5l-22.546875 0l0 11.6875l21.125 0l0 4.484375l-21.125 0l0 13.0l23.4375 0l0 4.5l-28.484375 0z" fill-rule="nonzero"/><path fill="#d9d9d9" d="m568.3688 457.2l0 -22.90625l3.109375 0l12.03125 17.984375l0 -17.984375l2.90625 0l0 22.90625l-3.109375 0l-12.03125 -18.0l0 18.0l-2.90625 0zm33.859375 -8.984375l0 -2.6875l9.703125 -0.015625l0 8.5q-2.234375 1.78125 -4.609375 2.6875q-2.375 0.890625 -4.875 0.890625q-3.375 0 -6.140625 -1.4375q-2.75 -1.453125 -4.15625 -4.1875q-1.40625 -2.734375 -1.40625 -6.109375q0 -3.34375 1.390625 -6.234375q1.40625 -2.90625 4.03125 -4.3125q2.625 -1.40625 6.046875 -1.40625q2.484375 0 4.484375 0.8125q2.015625 0.796875 3.15625 2.234375q1.140625 1.4375 1.734375 3.75l-2.734375 0.75q-0.515625 -1.75 -1.28125 -2.75q-0.765625 -1.0 -2.1875 -1.59375q-1.421875 -0.609375 -3.15625 -0.609375q-2.078125 0 -3.59375 0.640625q-1.515625 0.625 -2.453125 1.65625q-0.921875 1.03125 -1.4375 2.265625q-0.875 2.125 -0.875 4.609375q0 3.0625 1.046875 5.125q1.0625 2.0625 3.078125 3.0625q2.015625 1.0 4.28125 1.0q1.96875 0 3.84375 -0.75q1.875 -0.765625 2.84375 -1.625l0 -4.265625l-6.734375 0zm14.6875 8.984375l0 -22.90625l3.03125 0l0 22.90625l-3.03125 0zm8.34375 0l0 -22.90625l3.109375 0l12.03125 17.984375l0 -17.984375l2.90625 0l0 22.90625l-3.109375 0l-12.03125 -18.0l0 18.0l-2.90625 0zm23.203125 0l0 -22.90625l16.5625 0l0 2.703125l-13.53125 0l0 7.015625l12.671875 0l0 2.6875l-12.671875 0l0 7.796875l14.0625 0l0 2.703125l-17.09375 0zm21.34375 0l0 -22.90625l16.5625 0l0 2.703125l-13.53125 0l0 7.015625l12.671875 0l0 2.6875l-12.671875 0l0 7.796875l14.0625 0l0 2.703125l-17.09375 0zm21.328125 0l0 -22.90625l10.15625 0q3.0625 0 4.65625 0.625q1.59375 0.609375 2.546875 2.171875q0.953125 1.5625 0.953125 3.453125q0 2.4375 -1.578125 4.109375q-1.578125 1.671875 -4.875 2.125q1.203125 0.578125 1.828125 1.140625q1.328125 1.21875 2.515625 3.046875l3.984375 6.234375l-3.8125 0l-3.03125 -4.765625q-1.328125 -2.0625 -2.1875 -3.15625q-0.859375 -1.09375 -1.546875 -1.53125q-0.671875 -0.4375 -1.375 -0.609375q-0.515625 -0.109375 -1.6875 -0.109375l-3.515625 0l0 10.171875l-3.03125 0zm3.03125 -12.796875l6.515625 0q2.078125 0 3.25 -0.421875q1.171875 -0.4375 1.78125 -1.375q0.609375 -0.953125 0.609375 -2.0625q0 -1.625 -1.1875 -2.671875q-1.171875 -1.046875 -3.71875 -1.046875l-7.25 0l0 7.578125z" fill-rule="nonzero"/><path fill="#00ffff" d="m724.8375 457.2l0 -38.171875l27.59375 0l0 4.5l-22.546875 0l0 11.6875l21.125 0l0 4.484375l-21.125 0l0 13.0l23.4375 0l0 4.5l-28.484375 0zm35.413208 0l0 -38.171875l5.1875 0l20.046875 29.96875l0 -29.96875l4.84375 0l0 38.171875l-5.1875 0l-20.046875 -30.0l0 30.0l-4.84375 0z" fill-rule="nonzero"/><path fill="#d9d9d9" d="m797.2626 457.2l0 -22.90625l3.03125 0l0 9.40625l11.90625 0l0 -9.40625l3.03125 0l0 22.90625l-3.03125 0l0 -10.796875l-11.90625 0l0 10.796875l-3.03125 0zm20.5 0l8.796875 -22.90625l3.265625 0l9.375 22.90625l-3.453125 0l-2.671875 -6.9375l-9.578125 0l-2.515625 6.9375l-3.21875 0zm6.609375 -9.40625l7.765625 0l-2.390625 -6.34375q-1.09375 -2.890625 -1.625 -4.75q-0.4375 2.203125 -1.234375 4.375l-2.515625 6.71875zm17.21875 9.40625l0 -22.90625l3.109375 0l12.03125 17.984375l0 -17.984375l2.90625 0l0 22.90625l-3.109375 0l-12.03125 -18.0l0 18.0l-2.90625 0zm39.484375 -8.03125l3.03125 0.765625q-0.953125 3.734375 -3.4375 5.703125q-2.46875 1.953125 -6.046875 1.953125q-3.703125 0 -6.03125 -1.5q-2.3125 -1.515625 -3.53125 -4.375q-1.203125 -2.859375 -1.203125 -6.140625q0 -3.578125 1.359375 -6.234375q1.375 -2.671875 3.890625 -4.046875q2.53125 -1.390625 5.5625 -1.390625q3.4375 0 5.78125 1.75q2.34375 1.75 3.265625 4.921875l-2.984375 0.703125q-0.796875 -2.5 -2.3125 -3.640625q-1.515625 -1.140625 -3.8125 -1.140625q-2.640625 0 -4.421875 1.265625q-1.765625 1.265625 -2.484375 3.40625q-0.71875 2.125 -0.71875 4.390625q0 2.921875 0.84375 5.109375q0.859375 2.171875 2.65625 3.25q1.796875 1.078125 3.890625 1.078125q2.546875 0 4.3125 -1.46875q1.765625 -1.46875 2.390625 -4.359375zm6.828125 8.03125l0 -22.90625l16.5625 0l0 2.703125l-13.53125 0l0 7.015625l12.671875 0l0 2.6875l-12.671875 0l0 7.796875l14.0625 0l0 2.703125l-17.09375 0zm21.328125 0l0 -22.90625l10.15625 0q3.0625 0 4.65625 0.625q1.59375 0.609375 2.546875 2.171875q0.953125 1.5625 0.953125 3.453125q0 2.4375 -1.578125 4.109375q-1.578125 1.671875 -4.875 2.125q1.203125 0.578125 1.828125 1.140625q1.328125 1.21875 2.515625 3.046875l3.984375 6.234375l-3.8125 0l-3.03125 -4.765625q-1.328125 -2.0625 -2.1875 -3.15625q-0.859375 -1.09375 -1.546875 -1.53125q-0.671875 -0.4375 -1.375 -0.609375q-0.515625 -0.109375 -1.6875 -0.109375l-3.515625 0l0 10.171875l-3.03125 0zm3.03125 -12.796875l6.515625 0q2.078125 0 3.25 -0.421875q1.171875 -0.4375 1.78125 -1.375q0.609375 -0.953125 0.609375 -2.0625q0 -1.625 -1.1875 -2.671875q-1.171875 -1.046875 -3.71875 -1.046875l-7.25 0l0 7.578125z" fill-rule="nonzero"/><path fill="#45818e" d="m50.643307 320.42783l211.62204 0l0 18.078735l-211.62204 0z" fill-rule="evenodd"/><path fill="#45818e" d="m83.550995 211.59073l16.0 -9.228348l73.354324 127.0551l-16.0 9.228363z" fill-rule="evenodd"/><path fill="#76a5af" d="m253.61414 206.6657l18.478271 0l0 123.96831l-18.478271 0z" fill-rule="evenodd"/><path fill="#a2c4c9" d="m442.63528 212.18777l16.0 9.259842l-61.984253 107.37007l-16.0 -9.259827z" fill-rule="evenodd"/><path fill="#d0e0e3" d="m521.4922 223.26389l16.0 -9.259842l61.984253 107.37007l-16.0 9.259857z" fill-rule="evenodd"/><g filter="url(#shadowFilter-p.1)"><use xlink:href="#p.1" transform=""/></g><defs><filter id="shadowFilter-p.1" filterUnits="userSpaceOnUse"><feGaussianBlur in="SourceAlpha" stdDeviation="4.0" result="blur"/><feComponentTransfer in="blur" color-interpolation-filters="sRGB"><feFuncR type="linear" slope="0" intercept="1.0"/><feFuncG type="linear" slope="0" intercept="1.0"/><feFuncB type="linear" slope="0" intercept="1.0"/><feFuncA type="linear" slope="1.0" intercept="0"/></feComponentTransfer></filter></defs><g id="p.1"><path fill="#f3f3f3" d="m738.9434 217.18332l16.0 9.291336l-61.984253 107.37007l-16.0 -9.291321z" fill-rule="evenodd"/></g><g filter="url(#shadowFilter-p.2)"><use xlink:href="#p.2" transform=""/></g><defs><filter id="shadowFilter-p.2" filterUnits="userSpaceOnUse"><feGaussianBlur in="SourceAlpha" stdDeviation="4.0" result="blur"/><feComponentTransfer in="blur" color-interpolation-filters="sRGB"><feFuncR type="linear" slope="0" intercept="1.0"/><feFuncG type="linear" slope="0" intercept="1.0"/><feFuncB type="linear" slope="0" intercept="1.0"/><feFuncA type="linear" slope="1.0" intercept="0"/></feComponentTransfer></filter></defs><g id="p.2"><path fill="#f3f3f3" d="m880.77374 217.23195l16.0 9.228348l-61.984253 107.33859l-16.0 -9.228363z" fill-rule="evenodd"/></g><g filter="url(#shadowFilter-p.3)"><use xlink:href="#p.3" transform=""/></g><defs><filter id="shadowFilter-p.3" filterUnits="userSpaceOnUse"><feGaussianBlur in="SourceAlpha" stdDeviation="6.5" result="blur"/><feComponentTransfer in="blur" color-interpolation-filters="sRGB"><feFuncR type="linear" slope="0" intercept="1.0"/><feFuncG type="linear" slope="0" intercept="1.0"/><feFuncB type="linear" slope="0" intercept="1.0"/><feFuncA type="linear" slope="1.0" intercept="0"/></feComponentTransfer></filter></defs><g id="p.3"><path fill="#f3f3f3" d="m876.82275 51.73496l18.478271 0l0 170.33783l-18.478271 0z" fill-rule="evenodd"/></g><g filter="url(#shadowFilter-p.4)"><use xlink:href="#p.4" transform=""/></g><defs><filter id="shadowFilter-p.4" filterUnits="userSpaceOnUse"><feGaussianBlur in="SourceAlpha" stdDeviation="17.5" result="blur"/><feComponentTransfer in="blur" color-interpolation-filters="sRGB"><feFuncR type="linear" slope="0" intercept="1.0"/><feFuncG type="linear" slope="0" intercept="1.0"/><feFuncB type="linear" slope="0" intercept="1.0"/><feFuncA type="linear" slope="1.0" intercept="0"/></feComponentTransfer></filter></defs><g id="p.4"><path fill="#ffffff" d="m868.0163 54.51858c0 -9.977318 8.078552 -18.065536 18.043945 -18.065536c4.7855835 0 9.375122 1.903328 12.759033 5.291275c3.3839111 3.3879433 5.284912 7.9829826 5.284912 12.774261c0 9.977322 -8.078552 18.065533 -18.043945 18.065533c-9.965393 0 -18.043945 -8.088211 -18.043945 -18.065533z" fill-rule="evenodd"/></g><path fill="#45818e" d="m117.278244 99.65568c-19.006851 0 -34.17988 3.9657211 -45.51908 11.897156c-11.339195 7.9314346 -17.008797 18.333824 -17.008797 31.20716c0 22.858795 17.637634 36.41342 52.912888 40.663864c11.095779 1.2608948 18.509872 2.5523071 22.24228 3.8742065c3.7324066 1.3015594 5.5986023 3.070877 5.5986023 5.307953c0 3.619995 -5.913025 5.4299927 -17.739052 5.4299927c-8.600754 0 -14.645622 -1.6879883 -18.134605 -5.063919c-1.6227875 -1.6066284 -3.742546 -2.4099426 -6.3592834 -2.4099426l-38.338264 0c-2.860157 0 -4.2902336 1.372757 -4.2902336 4.1182556c0 11.246368 5.7608833 20.713242 17.282642 28.400635c11.542053 7.6670685 27.719177 11.500595 48.531372 11.500595c20.812195 0 37.50659 -3.996231 50.08316 -11.988678c12.596863 -7.992447 18.895279 -18.425339 18.895279 -31.298676c0 -12.873322 -4.3307953 -22.52324 -12.992401 -28.949738c-8.661606 -6.4264984 -23.215958 -10.829468 -43.663025 -13.208893c-9.716415 -1.1388702 -16.19741 -2.2370758 -19.442978 -3.2946014c-3.2455673 -1.0575256 -4.868347 -2.5217896 -4.868347 -4.3927917c0 -3.4979706 4.178665 -5.2469635 12.536003 -5.2469635c5.9840164 0 10.466957 1.372757 13.448814 4.1182556c1.6227875 1.5049286 3.5599823 2.2574005 5.8115997 2.2574005l40.19432 0c1.3590851 0 2.4443207 -0.3762207 3.2557068 -1.1286926c0.8113861 -0.7524719 1.2170868 -1.7489929 1.2170868 -2.9895477c0 -9.253342 -5.8623047 -18.028763 -17.586914 -26.326271c-11.70433 -8.317841 -27.059921 -12.476761 -46.066772 -12.476761z" fill-rule="evenodd"/><path fill="#76a5af" d="m263.13687 99.654785c-27.296692 0 -46.767548 8.114471 -58.412567 24.343414c-6.177765 8.765259 -9.266663 19.452347 -9.266663 32.06131l0 22.1165c0 12.629303 3.0888977 23.285904 9.266663 31.969803c6.197525 8.683899 14.230606 14.927353 24.099258 18.730392c9.888382 3.8030243 20.832718 5.704529 32.832993 5.704529c12.02002 0 22.451202 -1.4642639 31.293518 -4.3927917c8.862061 -2.9285278 15.957611 -6.772232 21.286682 -11.531082c10.677887 -9.619415 16.016815 -20.235352 16.016815 -31.847778c0 -1.1388855 -0.39474487 -2.104889 -1.1842346 -2.8980255c-0.78948975 -0.81347656 -1.7270203 -1.2202148 -2.812561 -1.2202148l-39.28711 0c-2.6842651 0 -4.84552 1.687973 -6.4837036 5.063904c-1.6381836 3.3556213 -3.6711426 5.907913 -6.098816 7.656891c-2.407959 1.7489929 -6.3159485 2.6234741 -11.7239685 2.6234741c-5.388275 0 -9.750229 -1.3727417 -13.085846 -4.1182404c-3.3356018 -2.7454987 -5.0034027 -6.68071 -5.0034027 -11.805634l0 -29.986938c0 -5.1249237 1.6678009 -9.06015 5.0034027 -11.805649c3.335617 -2.7454834 7.697571 -4.1182404 13.085846 -4.1182404c5.40802 0 9.3160095 0.87449646 11.7239685 2.6234741c2.4276733 1.7489777 4.4606323 4.311447 6.098816 7.687393c1.6381836 3.375946 3.7994385 5.063919 6.4837036 5.063919l39.28711 0c1.0855408 0 2.0230713 -0.40673828 2.812561 -1.2202148c0.78948975 -0.8134918 1.1842346 -1.7896729 1.1842346 -2.928543c0 -11.612427 -5.338928 -22.228355 -16.016815 -31.847763c-5.329071 -4.7385254 -12.424622 -8.572052 -21.286682 -11.500587c-8.842316 -2.9488678 -18.78006 -4.4233017 -29.813202 -4.4233017z" fill-rule="evenodd"/><path fill="#a2c4c9" d="m412.91153 135.51884c2.813324 0 4.928314 1.0668182 6.3449707 3.20047c1.416626 2.1127167 2.1249695 4.5810547 2.1249695 7.404999c0 2.823944 -0.73825073 5.1667633 -2.2147522 7.028473c-1.4765015 1.8617096 -3.561554 2.7925568 -6.255188 2.7925568l-22.985504 0l0 -20.426498zm-67.669556 -35.86406c-1.356781 0 -2.5240173 0.5229492 -3.501709 1.5688553c-0.97766113 1.0249863 -1.4665222 2.2382355 -1.4665222 3.6397476l0 124.53581c0 1.4224396 0.48886108 2.6461487 1.4665222 3.6711273c0.97769165 1.0249786 2.144928 1.5374756 3.501709 1.5374756l39.71585 0c1.356781 0 2.5239868 -0.51249695 3.5016785 -1.5374756c0.97769165 -1.0249786 1.4665222 -2.2486877 1.4665222 -3.6711273l0 -37.77806l15.44339 0l16.19162 38.154587c1.456543 3.2213745 4.030426 4.832077 7.7216797 4.832077l41.7211 0c1.1173401 0 2.0750732 -0.41836548 2.873169 -1.2550812c0.7981262 -0.8367157 1.1971741 -1.7048187 1.1971741 -2.604309c0 -0.8994751 -0.1296997 -1.600235 -0.3890686 -2.1022644l-22.596436 -44.36725c12.869476 -7.8233643 19.30423 -20.478806 19.30423 -37.966324c0 -14.391647 -4.9083557 -25.76062 -14.725098 -34.10694c-9.796753 -8.367233 -23.095245 -12.55085 -39.895416 -12.55085z" fill-rule="evenodd"/><g filter="url(#shadowFilter-p.5)"><use xlink:href="#p.5" transform=""/></g><defs><filter id="shadowFilter-p.5" filterUnits="userSpaceOnUse"><feGaussianBlur in="SourceAlpha" stdDeviation="7.5" result="blur"/><feComponentTransfer in="blur" color-interpolation-filters="sRGB"><feFuncR type="linear" slope="0" intercept="1.0"/><feFuncG type="linear" slope="0" intercept="1.0"/><feFuncB type="linear" slope="0" intercept="1.0"/><feFuncA type="linear" slope="0.8" intercept="0"/></feComponentTransfer></filter></defs><g id="p.5"><path fill="#efefef" d="m635.21295 99.65557c-1.4497681 0 -2.6969604 0.5229492 -3.7416382 1.5688553c-1.0446167 1.0249863 -1.5669556 2.2382278 -1.5669556 3.6397476l0 124.535805c0 1.4224396 0.52233887 2.6461487 1.5669556 3.6711273c1.0446777 1.0249786 2.29187 1.5374756 3.7416382 1.5374756l124.1767 0c1.4284668 0 2.664978 -0.51249695 3.7096558 -1.5374756c1.065979 -1.0249786 1.598999 -2.2486877 1.598999 -3.6711273l0 -27.172592c0 -1.4224243 -0.53302 -2.6461334 -1.598999 -3.671112c-1.0446777 -1.0249939 -2.281189 -1.5374908 -3.7096558 -1.5374908l-78.41394 0l0 -12.142944l65.62213 0c1.4497681 0 2.6969604 -0.51249695 3.7416382 -1.5374756c1.0446167 -1.0249786 1.5669556 -2.2486877 1.5669556 -3.6711273l0 -25.070328c0 -1.4015045 -0.52233887 -2.6147614 -1.5669556 -3.63974c-1.0446777 -1.0458984 -2.29187 -1.5688629 -3.7416382 -1.5688629l-65.62213 0l0 -12.142944l76.43121 0c1.4497681 0 2.6969604 -0.5124817 3.7416382 -1.5374756c1.0446777 -1.0249939 1.5670166 -2.248703 1.5670166 -3.6711273l0 -27.172585c0 -1.4015121 -0.52233887 -2.6147614 -1.5670166 -3.6397476c-1.0446777 -1.0459061 -2.29187 -1.5688553 -3.7416382 -1.5688553z" fill-rule="evenodd"/></g><g filter="url(#shadowFilter-p.6)"><use xlink:href="#p.6" transform=""/></g><defs><filter id="shadowFilter-p.6" filterUnits="userSpaceOnUse"><feGaussianBlur in="SourceAlpha" stdDeviation="7.5" result="blur"/><feComponentTransfer in="blur" color-interpolation-filters="sRGB"><feFuncR type="linear" slope="0" intercept="1.0"/><feFuncG type="linear" slope="0" intercept="1.0"/><feFuncB type="linear" slope="0" intercept="1.0"/><feFuncA type="linear" slope="0.6" intercept="0"/></feComponentTransfer></filter></defs><g id="p.6"><path fill="#d0e0e3" d="m490.398 99.656334c-1.4497375 0 -2.6969604 0.5229492 -3.7416077 1.5688553c-1.0446777 1.0249863 -1.5670166 2.2382278 -1.5670166 3.6397476l0 124.535805c0 1.4224396 0.52233887 2.6461487 1.5670166 3.6711273c1.0446472 1.0249786 2.29187 1.5374756 3.7416077 1.5374756l124.1767 0c1.4284058 0 2.664978 -0.51249695 3.7096558 -1.5374756c1.065979 -1.0249786 1.598999 -2.2486877 1.598999 -3.6711273l0 -27.172592c0 -1.4224243 -0.53302 -2.6461334 -1.598999 -3.671112c-1.0446777 -1.0249939 -2.28125 -1.5374908 -3.7096558 -1.5374908l-78.41394 0l0 -12.142944l65.62213 0c1.449707 0 2.6969604 -0.51249695 3.7415771 -1.5374756c1.0446777 -1.0249786 1.5670166 -2.2486877 1.5670166 -3.6711273l0 -25.070328c0 -1.4015045 -0.52233887 -2.6147614 -1.5670166 -3.63974c-1.0446167 -1.0458984 -2.29187 -1.5688629 -3.7415771 -1.5688629l-65.62213 0l0 -12.142944l76.43121 0c1.4497681 0 2.6969604 -0.5124817 3.7416382 -1.5374756c1.0446777 -1.0249939 1.5669556 -2.248703 1.5669556 -3.6711273l0 -27.172585c0 -1.4015121 -0.52227783 -2.6147614 -1.5669556 -3.6397476c-1.0446777 -1.0459061 -2.29187 -1.5688553 -3.7416382 -1.5688553z" fill-rule="evenodd"/></g><g filter="url(#shadowFilter-p.7)"><use xlink:href="#p.7" transform=""/></g><defs><filter id="shadowFilter-p.7" filterUnits="userSpaceOnUse"><feGaussianBlur in="SourceAlpha" stdDeviation="7.5" result="blur"/><feComponentTransfer in="blur" color-interpolation-filters="sRGB"><feFuncR type="linear" slope="0" intercept="1.0"/><feFuncG type="linear" slope="0" intercept="1.0"/><feFuncB type="linear" slope="0" intercept="1.0"/><feFuncA type="linear" slope="1.0" intercept="0"/></feComponentTransfer></filter></defs><g id="p.7"><path fill="#ffffff" d="m780.03046 136.1267c-1.4284668 0 -2.6756592 0.38160706 -3.7416382 1.1448364c-1.0446777 0.7479553 -1.5669556 1.6333008 -1.5669556 2.656021l0 90.87718c0 1.0379944 0.52227783 1.930954 1.5669556 2.6789246c1.065979 0.7479553 2.3131714 1.121933 3.7416382 1.121933l36.55249 0c1.4497681 0 2.6969604 -0.37397766 3.7416382 -1.121933c1.0446167 -0.7479706 1.5669556 -1.6409302 1.5669556 -2.6789246l0 -38.260468l42.820557 39.10765c2.1106567 1.9691162 4.732971 2.9536743 7.8669434 2.9536743l31.627686 0c1.4497681 0 2.6969604 -0.37397766 3.7415771 -1.121933c1.0446777 -0.7479706 1.5670166 -1.6409302 1.5670166 -2.6789246l0 -90.87718c0 -1.0227203 -0.52233887 -1.9080658 -1.5670166 -2.656021c-1.0446167 -0.76322937 -2.291809 -1.1448364 -3.7415771 -1.1448364l-36.55255 0c-1.4284058 0 -2.664917 0.38160706 -3.7095947 1.1448364c-1.0446777 0.7479553 -1.5670166 1.6333008 -1.5670166 2.656021l0 41.351517l-42.852478 -42.336075c-1.9614258 -1.877533 -4.509094 -2.8162994 -7.6431274 -2.8162994z" fill-rule="evenodd"/></g><path fill="#76a5af" d="m262.24677 320.42783l112.0 0l0 18.078735l-112.0 0z" fill-rule="evenodd"/><path fill="#a2c4c9" d="m366.24667 320.42783l230.70865 0l0 18.078735l-230.70865 0z" fill-rule="evenodd"/><path fill="#d0e0e3" d="m596.9554 320.42783l101.57477 0l0 18.078735l-101.57477 0z" fill-rule="evenodd"/><path fill="#f3f3f3" d="m682.30707 320.42783l139.87402 0l0 18.078735l-139.87402 0z" fill-rule="evenodd"/><g filter="url(#shadowFilter-p.8)"><use xlink:href="#p.8" transform=""/></g><defs><filter id="shadowFilter-p.8" filterUnits="userSpaceOnUse"><feGaussianBlur in="SourceAlpha" stdDeviation="13.888888" result="blur"/><feComponentTransfer in="blur" color-interpolation-filters="sRGB"><feFuncR type="linear" slope="0" intercept="1.0"/><feFuncG type="linear" slope="0" intercept="1.0"/><feFuncB type="linear" slope="0" intercept="1.0"/><feFuncA type="linear" slope="1.0" intercept="0"/></feComponentTransfer></filter></defs><g id="p.8"><path fill="#00ffff" d="m147.47144 329.4587c0 -9.975922 8.080017 -18.062988 18.047241 -18.062988c4.7864227 0 9.376816 1.9030457 12.761322 5.2905273c3.3845215 3.3874512 5.285919 7.981842 5.285919 12.772461c0 9.975922 -8.080032 18.062988 -18.047241 18.062988c-9.967224 0 -18.047241 -8.087067 -18.047241 -18.062988z" fill-rule="evenodd"/></g><g filter="url(#shadowFilter-p.9)"><use xlink:href="#p.9" transform=""/></g><defs><filter id="shadowFilter-p.9" filterUnits="userSpaceOnUse"><feGaussianBlur in="SourceAlpha" stdDeviation="13.888888" result="blur"/><feComponentTransfer in="blur" color-interpolation-filters="sRGB"><feFuncR type="linear" slope="0" intercept="1.0"/><feFuncG type="linear" slope="0" intercept="1.0"/><feFuncB type="linear" slope="0" intercept="1.0"/><feFuncA type="linear" slope="1.0" intercept="0"/></feComponentTransfer></filter></defs><g id="p.9"><path fill="#5affff" d="m244.80603 329.46124c0 -9.977325 8.078552 -18.065521 18.043945 -18.065521c4.785553 0 9.375092 1.9033203 12.759003 5.29126c3.3838806 3.3879395 5.2849426 7.9830017 5.2849426 12.774261c0 9.977325 -8.078552 18.065552 -18.043945 18.065552c-9.965393 0 -18.043945 -8.088226 -18.043945 -18.065552z" fill-rule="evenodd"/></g><g filter="url(#shadowFilter-p.10)"><use xlink:href="#p.10" transform=""/></g><defs><filter id="shadowFilter-p.10" filterUnits="userSpaceOnUse"><feGaussianBlur in="SourceAlpha" stdDeviation="13.888888" result="blur"/><feComponentTransfer in="blur" color-interpolation-filters="sRGB"><feFuncR type="linear" slope="0" intercept="1.0"/><feFuncG type="linear" slope="0" intercept="1.0"/><feFuncB type="linear" slope="0" intercept="1.0"/><feFuncA type="linear" slope="1.0" intercept="0"/></feComponentTransfer></filter></defs><g id="p.10"><path fill="#abfcfc" d="m364.57516 329.4587c0 -9.975922 8.080017 -18.062988 18.047241 -18.062988c4.7864075 0 9.376801 1.9030457 12.761322 5.2905273c3.3845215 3.3874512 5.285919 7.981842 5.285919 12.772461c0 9.975922 -8.080017 18.062988 -18.047241 18.062988c-9.967224 0 -18.047241 -8.087067 -18.047241 -18.062988z" fill-rule="evenodd"/></g><g filter="url(#shadowFilter-p.11)"><use xlink:href="#p.11" transform=""/></g><defs><filter id="shadowFilter-p.11" filterUnits="userSpaceOnUse"><feGaussianBlur in="SourceAlpha" stdDeviation="13.888888" result="blur"/><feComponentTransfer in="blur" color-interpolation-filters="sRGB"><feFuncR type="linear" slope="0" intercept="1.0"/><feFuncG type="linear" slope="0" intercept="1.0"/><feFuncB type="linear" slope="0" intercept="1.0"/><feFuncA type="linear" slope="1.0" intercept="0"/></feComponentTransfer></filter></defs><g id="p.11"><path fill="#d8fbfb" d="m577.0232 329.46124c0 -9.977325 8.078552 -18.065521 18.043945 -18.065521c4.7855225 0 9.375122 1.9033203 12.758972 5.29126c3.3839111 3.3879395 5.284973 7.9830017 5.284973 12.774261c0 9.977325 -8.078552 18.065552 -18.043945 18.065552c-9.965393 0 -18.043945 -8.088226 -18.043945 -18.065552z" fill-rule="evenodd"/></g><g filter="url(#shadowFilter-p.12)"><use xlink:href="#p.12" transform=""/></g><defs><filter id="shadowFilter-p.12" filterUnits="userSpaceOnUse"><feGaussianBlur in="SourceAlpha" stdDeviation="13.888888" result="blur"/><feComponentTransfer in="blur" color-interpolation-filters="sRGB"><feFuncR type="linear" slope="0" intercept="1.0"/><feFuncG type="linear" slope="0" intercept="1.0"/><feFuncB type="linear" slope="0" intercept="1.0"/><feFuncA type="linear" slope="1.0" intercept="0"/></feComponentTransfer></filter></defs><g id="p.12"><path fill="#ffffff" d="m664.3021 329.4587c0 -9.975922 8.080017 -18.062988 18.047241 -18.062988c4.786438 0 9.37677 1.9030457 12.7612915 5.2905273c3.3845215 3.3874512 5.2859497 7.981842 5.2859497 12.772461c0 9.975922 -8.080017 18.062988 -18.047241 18.062988c-9.967224 0 -18.047241 -8.087067 -18.047241 -18.062988z" fill-rule="evenodd"/></g><g filter="url(#shadowFilter-p.13)"><use xlink:href="#p.13" transform=""/></g><defs><filter id="shadowFilter-p.13" filterUnits="userSpaceOnUse"><feGaussianBlur in="SourceAlpha" stdDeviation="13.888888" result="blur"/><feComponentTransfer in="blur" color-interpolation-filters="sRGB"><feFuncR type="linear" slope="0" intercept="1.0"/><feFuncG type="linear" slope="0" intercept="1.0"/><feFuncB type="linear" slope="0" intercept="1.0"/><feFuncA type="linear" slope="1.0" intercept="0"/></feComponentTransfer></filter></defs><g id="p.13"><path fill="#ffffff" d="m805.47845 329.4587c0 -9.975922 8.080017 -18.062988 18.047241 -18.062988c4.786438 0 9.376831 1.9030457 12.7612915 5.2905273c3.3845215 3.3874512 5.2859497 7.981842 5.2859497 12.772461c0 9.975922 -8.080017 18.062988 -18.047241 18.062988c-9.967224 0 -18.047241 -8.087067 -18.047241 -18.062988z" fill-rule="evenodd"/></g><path fill="#00ffff" d="m35.471428 329.4587c0 -9.975922 8.080029 -18.062988 18.047245 -18.062988c4.7864265 0 9.376812 1.9030457 12.761326 5.2905273c3.3845139 3.3874512 5.285919 7.981842 5.285919 12.772461c0 9.975922 -8.080029 18.062988 -18.047245 18.062988c-9.9672165 0 -18.047245 -8.087067 -18.047245 -18.062988z" fill-rule="evenodd"/></g></svg>